<svg width="573.828125" height="208.080017" viewBox="0 0 573.828 208.08" fill="none" xmlns="http://www.w3.org/2000/svg" xmlns:xlink="http://www.w3.org/1999/xlink">
	<desc>
			Created with Pixso.
	</desc>
	<defs/>
	<path id="404" d="M283.42 208.08C267.24 208.08 252.79 204.03 240.07 195.94Q238.24 194.74 236.48 193.45Q219.94 181.26 210.02 160.1Q199.03 136.4 199.03 104.04Q199.03 71.67 210.02 48.26Q220.22 26.23 237.42 14.19Q238.73 13.28 240.07 12.42C252.79 4.14 267.24 0 283.42 0Q300.31 0 314.68 6.01L314.69 6.01Q320.97 8.64 326.77 12.42C339.68 20.51 349.79 32.46 357.12 48.26C364.44 63.86 368.1 82.46 368.1 104.04C368.1 125.61 364.44 144.3 357.12 160.1C349.79 175.71 339.68 187.65 326.77 195.94Q321.51 199.29 315.85 201.71Q301 208.08 283.42 208.08ZM183.22 159.23L147.39 159.23L147.39 205.19L110.97 205.19L110.97 159.23L0 159.23L0 133.22L99.7 2.89L139.87 2.89L45.95 127.44L112.13 127.44L112.13 86.7L147.39 86.7L147.39 127.44L183.22 127.44L183.22 159.23ZM537.99 159.23L573.82 159.23L573.82 127.44L537.99 127.44L537.99 86.7L502.73 86.7L502.73 127.44L436.55 127.44L530.47 2.89L490.3 2.89L390.6 133.22L390.6 159.23L501.57 159.23L501.57 205.19L537.99 205.19L537.99 159.23ZM283.42 175.42C297.87 175.42 309.24 169.45 317.52 157.5C326 145.56 330.24 127.73 330.24 104.04C330.24 80.34 326 62.52 317.52 50.57C309.24 38.62 297.87 32.65 283.42 32.65Q273.41 32.65 265.3 36.58Q256.09 41.04 249.32 50.57C241.03 62.52 236.89 80.34 236.89 104.04C236.89 127.73 241.03 145.56 249.32 157.5Q256.09 167.03 265.3 171.49Q273.41 175.42 283.42 175.42Z" fill="#826A5C" fill-opacity="1.000000" fill-rule="evenodd"/>
</svg>
