<svg width="445.480469" height="277.605652" viewBox="0 0 445.48 277.606" fill="none" xmlns="http://www.w3.org/2000/svg" xmlns:xlink="http://www.w3.org/1999/xlink">
	<desc>
			Created with Pixso.
	</desc>
	<defs/>
	<path id="Vector" d="M353.8 95.59C343.66 95.59 333.99 97.43 324.78 100.19L288.38 12.86L347.35 12.86L347.35 0L278.71 0C276.41 0 274.56 0.91 273.18 2.75C272.26 4.59 271.8 6.89 272.72 9.19L290.69 52.39L158.47 50.55L146.95 20.22C146.03 17.92 143.73 16.08 140.96 16.08L104.11 16.08L104.11 28.95L136.36 28.95L146.49 55.61L124.84 102.49C114.25 98.35 103.19 96.05 91.21 96.05C70.02 96.05 50.67 103.41 35.01 115.36L0 115.36L0 128.23L71.4 128.23L71.4 114.9L59.88 114.9C69.56 110.76 80.15 108.46 91.21 108.46C101.35 108.46 110.56 110.3 119.31 113.98L93.51 170.05C92.59 170.05 92.13 170.05 91.21 170.05C81.54 170.05 73.24 177.87 73.24 187.98C73.24 197.63 81.08 205.9 91.21 205.9C97.66 205.9 103.19 202.68 106.41 197.17L168.61 197.63C163.08 235.78 130.37 264.73 91.21 264.73C47.91 264.73 12.89 229.8 12.89 186.6C12.89 168.21 19.34 151.21 29.94 137.88L21.65 137.88L14.28 137.88C5.06 152.13 0 168.67 0 186.6C0 236.7 41 277.6 91.21 277.6C137.74 277.6 176.44 242.67 181.97 197.63L238.63 198.55C240.93 198.55 243.24 197.17 244.62 194.87L300.36 74.45L313.26 105.25C283.32 120.41 263.04 151.21 263.04 186.6C263.04 236.7 304.05 277.6 354.26 277.6C404.47 277.6 445.48 236.7 445.48 186.6C445.48 136.5 404.47 95.59 353.8 95.59ZM108.72 183.84C108.26 181.08 106.87 178.32 105.03 176.03L130.83 119.49C153.4 132.82 168.61 157.18 169.07 184.76L108.72 183.84ZM182.43 184.76C181.97 151.67 163.54 123.17 136.36 107.54L152.94 72.15L195.79 185.22L182.43 184.76ZM234.02 185.68L209.61 185.22L163.54 62.96L290.23 64.8L234.02 185.68ZM353.8 264.73C310.5 264.73 275.48 229.8 275.48 186.6C275.48 156.26 292.53 130.07 317.87 117.2L341.36 173.73C338.14 176.95 335.83 181.54 335.83 186.6C335.83 196.25 343.66 204.52 353.8 204.52C363.93 204.52 371.77 196.71 371.77 186.6C371.77 176.95 363.93 168.67 353.8 168.67L353.34 168.67L329.84 112.14C337.22 109.84 345.51 108.46 353.8 108.46C397.1 108.46 432.12 143.39 432.12 186.6C432.58 229.8 397.1 264.73 353.8 264.73Z" fill="#836B5D" fill-opacity="1.000000" fill-rule="nonzero"/>
</svg>
