<svg width="256.000000" height="343.081726" viewBox="0 0 256 343.082" fill="none" xmlns="http://www.w3.org/2000/svg" xmlns:xlink="http://www.w3.org/1999/xlink">
	<desc>
			Created with Pixso.
	</desc>
	<defs/>
	<path id="Vector" d="M124.82 343.08C119.34 343.08 113.87 340.89 110.58 336.51L108.94 334.32C78.83 301.49 0 213.94 0 124.21C0 83.71 26.27 5.47 125.36 0L125.36 0.54L125.91 0.54L125.91 0L125.91 0.54C139.05 -1.1 168.61 4.92 186.13 12.58C217.89 25.71 255.66 55.26 255.66 120.92C256.75 130.22 261.68 200.81 140.14 335.96C136.31 340.34 130.84 343.08 124.82 343.08ZM125.91 16.41C18.06 22.43 16.42 119.83 16.42 124.21C16.42 207.92 92.52 291.64 120.98 323.38L122.63 325.57C123.17 326.11 124.27 326.66 124.82 326.66C125.91 326.66 127.01 326.11 127.55 325.02C191.61 254.43 218.43 203 229.93 172.36C241.97 139.53 239.24 123.11 239.24 122.56L239.24 120.92C239.24 90.28 230.48 65.66 212.41 48.15C179.56 16.41 128.65 16.41 125.91 16.41Z" fill="#826A5C" fill-opacity="1.000000" fill-rule="nonzero"/>
	<path id="Vector" d="M128.65 176.73C99.09 176.73 75 152.66 75 123.11C75 93.56 99.09 69.49 128.65 69.49C158.21 69.49 182.3 93.56 182.3 123.11C182.3 152.66 158.76 176.73 128.65 176.73ZM128.65 85.9C107.85 85.9 91.42 102.87 91.42 123.11C91.42 143.9 108.39 160.32 128.65 160.32C148.91 160.32 165.88 143.36 165.88 123.11C166.42 102.32 149.45 85.9 128.65 85.9Z" fill="#826A5C" fill-opacity="1.000000" fill-rule="nonzero"/>
</svg>
