<svg width="68.972168" height="60.598145" viewBox="0 0 68.9722 60.5981" fill="none" xmlns="http://www.w3.org/2000/svg" xmlns:xlink="http://www.w3.org/1999/xlink">
	<desc>
			Created with Pixso.
	</desc>
	<defs/>
	<path id="Vector" d="M63.64 26.28C66.59 35.48 56.62 46.88 41.38 51.75C26.05 56.57 11.32 53.07 8.4 43.94C8.24 43.43 8.14 42.9 8.08 42.44C6.6 33.58 16.32 23.14 30.76 18.53C45.2 13.91 59.17 16.77 63.13 24.92C63.25 25.28 63.48 25.77 63.64 26.28Z" fill="#F281A3" fill-opacity="1.000000" fill-rule="nonzero"/>
	<path id="Vector" d="M63.03 24.87C63.25 27.05 62.2 29.24 61.53 31.87C60.86 34.5 59.47 36.87 56.58 37.8C55.14 38.26 53.73 39.35 52.81 40.69C51.35 42.85 48.82 44.14 46.27 44.39C44.04 44.62 41.7 45.53 39.77 46.95C36.58 49.18 33.43 49.79 29.96 49.13C26.82 48.52 23.74 48.62 21.07 49.23C17.15 50.16 14.47 49.25 12.05 46.64C10.57 45.02 8.9 44.03 8 42.46C6.52 33.6 16.24 23.17 30.69 18.55C45.11 13.86 59.07 16.72 63.03 24.87Z" fill="#EE5D7C" fill-opacity="1.000000" fill-rule="nonzero"/>
	<path id="Vector" d="M62.15 21.61C62.97 24.16 61.67 26.59 60.9 29.65C60.23 32.28 58.84 34.66 55.95 35.58C54.51 36.04 53.11 37.14 52.18 38.48C50.65 40.66 48.19 41.93 45.64 42.18C43.41 42.41 41.07 43.32 39.14 44.74C35.95 46.97 32.8 47.57 29.33 46.91C26.19 46.31 23.12 46.4 20.47 47.09C16.48 48.04 13.77 47.06 11.35 44.45C9.64 42.58 7.58 41.39 6.91 39.27C4.38 31.39 14.7 21.08 29.94 16.21C45.18 11.34 59.63 13.72 62.15 21.61Z" fill="#AAD7D4" fill-opacity="1.000000" fill-rule="nonzero"/>
	<path id="Vector" d="M60.56 16.64C63.5 25.84 53.51 37.17 38.28 42.04C22.97 46.93 8.24 43.43 5.32 34.31C5.04 33.43 4.9 32.51 4.84 31.56C4.39 22.93 13.86 13.22 27.58 8.84C41.3 4.45 54.72 6.84 59.36 14.13C59.83 14.86 60.26 15.69 60.56 16.64Z" fill="#EE5D7C" fill-opacity="1.000000" fill-rule="nonzero"/>
	<path id="Vector" d="M59.36 14.13C59.79 22.69 50.32 32.39 36.52 36.8C22.73 41.21 9.45 38.78 4.84 31.56C4.39 22.93 13.86 13.22 27.58 8.84C41.3 4.45 54.72 6.84 59.36 14.13Z" fill="#F281A3" fill-opacity="1.000000" fill-rule="nonzero"/>
	<path id="Vector" d="M31.31 13.52C33.28 16.19 29.94 21.93 23.94 26.34C17.95 30.75 11.5 32.25 9.56 29.65C7.59 26.98 10.93 21.24 16.92 16.83C22.89 12.35 29.36 10.92 31.31 13.52Z" fill="#F2AEBD" fill-opacity="1.000000" fill-rule="nonzero"/>
	<path id="Vector" d="M41.1 18.76C40.81 18.85 40.98 19.36 41.27 19.27C41.6 19.08 41.46 18.65 41.1 18.76Z" fill="#EE3686" fill-opacity="1.000000" fill-rule="nonzero"/>
	<path id="Vector" d="M43.28 13.64C42.35 13.94 42.81 15.4 43.75 15.1C44.69 14.8 44.22 13.34 43.28 13.64Z" fill="#EE3686" fill-opacity="1.000000" fill-rule="nonzero"/>
	<path id="Vector" d="M34.71 25.15C33.77 25.45 34.24 26.91 35.17 26.61C36.21 26.36 35.72 24.83 34.71 25.15Z" fill="#EE3686" fill-opacity="1.000000" fill-rule="nonzero"/>
	<path id="Vector" d="M23.18 31.17L23.11 31.19C22.82 31.29 22.98 31.8 23.27 31.71L23.34 31.68C23.63 31.59 23.47 31.08 23.18 31.17Z" fill="#EE3686" fill-opacity="1.000000" fill-rule="nonzero"/>
	<path id="Vector" d="M31.91 21.14C31.55 21.01 31.31 21.49 31.6 21.64C31.76 21.67 31.86 21.72 32.08 21.65C32.44 21.53 32.27 21.02 31.91 21.14Z" fill="#EE3686" fill-opacity="1.000000" fill-rule="nonzero"/>
	<path id="Vector" d="M32.3 10.15C32.01 10.24 32.17 10.75 32.46 10.66C32.75 10.57 32.59 10.05 32.3 10.15Z" fill="#EE3686" fill-opacity="1.000000" fill-rule="nonzero"/>
	<path id="Vector" d="M27.75 32.28L27.54 32.35C26.6 32.65 27.09 34.19 28.03 33.89L28.25 33.82C29.23 33.42 28.77 31.96 27.75 32.28Z" fill="#EE3686" fill-opacity="1.000000" fill-rule="nonzero"/>
	<path id="Vector" d="M9.29 30.06C8.86 29.95 8.47 30.24 8.37 30.67C8.28 30.87 8.28 31.11 8.35 31.33C8.49 31.76 8.94 31.94 9.3 31.83C9.66 31.71 9.86 31.33 9.81 30.94C10.01 30.55 9.63 30.11 9.29 30.06Z" fill="#EE3686" fill-opacity="1.000000" fill-rule="nonzero"/>
	<path id="Vector" d="M45.18 27.52C44.24 27.82 44.7 29.28 45.64 28.98C46.65 28.66 46.19 27.2 45.18 27.52Z" fill="#EE3686" fill-opacity="1.000000" fill-rule="nonzero"/>
</svg>
