<svg width="66.334473" height="53.601807" viewBox="0 0 66.3345 53.6018" fill="none" xmlns="http://www.w3.org/2000/svg" xmlns:xlink="http://www.w3.org/1999/xlink">
	<desc>
			Created with Pixso.
	</desc>
	<defs/>
	<path id="Vector" d="M63.32 35.29C62.27 45.41 47.69 52.17 30.75 50.41C13.73 48.55 0.85 38.94 1.9 28.9C1.96 28.34 2.1 27.78 2.23 27.31C4.56 18.14 18.49 12.2 34.55 13.87C50.61 15.54 63.01 24.22 63.4 33.76C63.36 34.16 63.38 34.73 63.32 35.29Z" fill="#78CCCA" fill-opacity="1.000000" fill-rule="nonzero"/>
	<path id="Vector" d="M63.33 33.67C62.61 35.87 60.65 37.53 58.88 39.78C57.1 42.03 54.73 43.73 51.52 43.4C49.92 43.23 48.08 43.69 46.61 44.59C44.27 46.05 41.25 46.22 38.65 45.38C36.38 44.66 33.71 44.55 31.22 45.1C27.16 45.89 23.83 45.14 20.72 43.03C17.92 41.12 14.88 39.91 12.01 39.37C7.79 38.6 5.56 36.59 4.31 33.05C3.56 30.86 2.36 29.19 2.15 27.3C4.48 18.13 18.41 12.19 34.47 13.86C50.53 15.46 62.94 24.13 63.33 33.67Z" fill="#5EC4BA" fill-opacity="1.000000" fill-rule="nonzero"/>
	<path id="Vector" d="M63.86 30.15C63.56 32.96 61.27 34.75 59.21 37.38C57.43 39.63 55.06 41.33 51.85 41C50.25 40.83 48.41 41.29 46.94 42.19C44.52 43.64 41.58 43.82 38.98 42.98C36.71 42.26 34.04 42.15 31.55 42.7C27.49 43.49 24.16 42.74 21.05 40.63C18.25 38.72 15.21 37.51 12.33 37.05C8.03 36.27 5.81 34.18 4.56 30.64C3.69 28.11 2.19 26.09 2.43 23.76C3.34 15.09 17.79 9.53 34.73 11.3C51.76 13.07 64.76 21.48 63.86 30.15Z" fill="#EB5660" fill-opacity="1.000000" fill-rule="nonzero"/>
	<path id="Vector" d="M64.42 24.69C63.37 34.81 48.8 41.49 31.86 39.73C14.84 37.96 1.96 28.34 3 18.3C3.1 17.34 3.36 16.39 3.7 15.45C6.94 6.94 20.32 1.6 35.58 3.19C50.91 4.78 62.91 12.77 64.32 21.76C64.47 22.67 64.53 23.65 64.42 24.69Z" fill="#5EC4BA" fill-opacity="1.000000" fill-rule="nonzero"/>
	<path id="Vector" d="M64.25 22.48C61.01 30.99 47.63 36.34 32.29 34.74C17.04 33.15 5.05 25.17 3.63 16.18C6.87 7.67 20.25 2.32 35.5 3.91C50.84 5.5 62.83 13.49 64.25 22.48Z" fill="#78CCCA" fill-opacity="1.000000" fill-rule="nonzero"/>
	<path id="Vector" d="M37.22 9.28C38 12.69 32.29 16.8 24.57 18.52C16.83 20.31 9.92 18.94 9.13 15.61C8.34 12.2 14.05 8.09 21.77 6.38C29.51 4.58 36.43 5.95 37.22 9.28Z" fill="#9BD7D5" fill-opacity="1.000000" fill-rule="nonzero"/>
	<path id="Vector" d="M44.54 18.48C44.22 18.45 44.16 19.01 44.48 19.05C44.89 19.01 44.94 18.53 44.54 18.48Z" fill="#5EC4BA" fill-opacity="1.000000" fill-rule="nonzero"/>
	<path id="Vector" d="M48.85 14.47C47.81 14.36 47.64 15.97 48.68 16.07C49.73 16.18 49.89 14.58 48.85 14.47Z" fill="#5EC4BA" fill-opacity="1.000000" fill-rule="nonzero"/>
	<path id="Vector" d="M35.58 21.93C34.53 21.83 34.36 23.51 35.4 23.62C36.52 23.74 36.7 22.05 35.58 21.93Z" fill="#5EC4BA" fill-opacity="1.000000" fill-rule="nonzero"/>
	<path id="Vector" d="M21.76 22.85L21.68 22.84C21.36 22.81 21.3 23.37 21.63 23.4L21.71 23.41C22.03 23.45 22.08 22.88 21.76 22.85Z" fill="#5EC4BA" fill-opacity="1.000000" fill-rule="nonzero"/>
	<path id="Vector" d="M34.56 16.88L34.48 16.87C34.26 16.6 33.82 16.96 34.04 17.23C34.19 17.33 34.26 17.41 34.5 17.44C34.9 17.48 34.96 16.92 34.56 16.88Z" fill="#5EC4BA" fill-opacity="1.000000" fill-rule="nonzero"/>
	<path id="Vector" d="M39.62 6.45C39.3 6.41 39.24 6.98 39.56 7.01C39.88 7.04 39.94 6.48 39.62 6.45Z" fill="#7AC143" fill-opacity="1.000000" fill-rule="nonzero"/>
	<path id="Vector" d="M25.75 25.86L25.51 25.84C24.47 25.73 24.29 27.41 25.34 27.52L25.58 27.55C26.71 27.59 26.88 25.98 25.75 25.86Z" fill="#5EC4BA" fill-opacity="1.000000" fill-rule="nonzero"/>
	<path id="Vector" d="M8.69 15.89C8.31 15.61 7.82 15.72 7.53 16.09C7.36 16.24 7.25 16.47 7.23 16.71C7.18 17.19 7.54 17.56 7.95 17.6C8.35 17.64 8.7 17.35 8.82 16.96C9.18 16.67 9 16.08 8.69 15.89Z" fill="#5EC4BA" fill-opacity="1.000000" fill-rule="nonzero"/>
	<path id="Vector" d="M44.78 28.65C43.73 28.55 43.57 30.15 44.61 30.26C45.65 30.37 45.9 28.77 44.78 28.65Z" fill="#5EC4BA" fill-opacity="1.000000" fill-rule="nonzero"/>
</svg>
