<svg width="84.529785" height="96.203125" viewBox="0 0 84.5298 96.2031" fill="none" xmlns="http://www.w3.org/2000/svg" xmlns:xlink="http://www.w3.org/1999/xlink">
	<desc>
			Created with Pixso.
	</desc>
	<defs/>
	<path id="Vector" d="M68.62 23.08C68.36 22.7 67.94 22.48 67.52 22.29C66.05 21.58 64.53 20.94 62.91 20.7C61.29 20.47 59.57 20.65 58.19 21.51C59.7 18.7 61.5 16.06 63.56 13.63C63.4 13.48 63.24 13.34 63.08 13.2C61.18 14.56 59.76 16.48 58.6 18.5C57.43 20.52 56.47 22.65 55.3 24.67C56.31 20.59 55.76 16.14 53.78 12.43C53.3 12.58 52.84 12.73 52.37 12.88C53.92 14.24 54.37 16.3 54.64 18.35C54.9 20.4 55.03 22.44 54.55 24.45L54.07 26.87C54.54 25.03 55.93 24.06 57.66 23.21C59.65 22.24 61.02 22.05 63.09 22.08C64.52 22.11 67.55 23.24 68.49 24.32C68.88 24.05 68.88 23.46 68.62 23.08Z" fill="#E08CB8" fill-opacity="1.000000" fill-rule="nonzero"/>
	<path id="Vector" d="M54.08 26.86C54.04 26.98 54.02 27.11 54 27.25L54.08 26.86Z" fill="#E08CB8" fill-opacity="1.000000" fill-rule="nonzero"/>
	<path id="Vector" d="M56.23 22.42L3.66 64.59C3.66 64.59 5.14 70.35 10.49 75.31C14.73 79.25 22.85 83.75 22.85 83.75C22.85 83.75 31.03 88.13 36.64 89.55C43.71 91.35 49.36 89.47 49.36 89.47L56.23 22.42Z" fill="#46A5AA" fill-opacity="1.000000" fill-rule="nonzero"/>
	<path id="Vector" d="M52.34 37.82C52.97 38.43 53.68 39.04 54.44 39.46L54.88 35.27C53.5 34.25 52.08 33.28 50.83 32.1C49.82 31.14 48.94 30.03 48.22 28.82L46 30.6C47.9 33.18 50.03 35.6 52.34 37.82Z" fill="#E08CB8" fill-opacity="1.000000" fill-rule="nonzero"/>
	<path id="Vector" d="M51.12 67.27C51.26 67.31 51.42 67.35 51.58 67.39L52.02 63.12C48.68 60.29 44.89 57.99 41.63 55.06C37.54 51.36 34.37 46.64 32.47 41.46L27.89 45.12C31.49 49.19 34.47 53.76 38.02 57.86C41.59 61.97 45.91 65.68 51.12 67.27Z" fill="#E08CB8" fill-opacity="1.000000" fill-rule="nonzero"/>
	<path id="Vector" d="M50.71 75.77C50.53 75.66 50.35 75.54 50.17 75.42C44.2 71.65 38.19 67.84 32.96 63.11C28.68 59.24 24.9 54.7 22.41 49.52L17.09 53.78C24.04 66.11 35.26 76 48.39 81.31C48.92 81.52 49.51 81.72 50.1 81.83L50.71 75.77Z" fill="#E08CB8" fill-opacity="1.000000" fill-rule="nonzero"/>
	<path id="Vector" d="M42.73 34.99C42.51 34.59 42.3 34.17 42.09 33.73L38.53 36.58C41.52 41.22 44.87 45.62 48.54 49.73C49.85 51.2 51.24 52.65 53 53.51L53.53 48.37C49.21 44.57 45.54 40.02 42.73 34.99Z" fill="#E08CB8" fill-opacity="1.000000" fill-rule="nonzero"/>
	<path id="Vector" d="M17.33 76.31C19.26 78.96 21.2 81.63 23.39 84.06C25.36 85.07 31.88 88.35 36.59 89.55C37.74 89.84 38.86 90.03 39.91 90.15C39.7 89.69 39.37 89.27 39.04 88.88C36.24 85.54 32.64 82.95 29.59 79.82C23.79 73.89 20.1 66.16 14.35 60.16C13.6 59.38 12.81 58.61 12.13 57.77L6.94 61.93C7.55 62.87 8.22 63.79 8.87 64.69C11.69 68.57 14.51 72.44 17.33 76.31Z" fill="#E08CB8" fill-opacity="1.000000" fill-rule="nonzero"/>
	<g opacity="0.340000">
		<path id="Vector" d="M18.32 59.85C17.13 60.86 15.88 61.95 15.34 63.41C14.8 64.88 15.23 66.84 16.67 67.46C17.67 67.88 18.86 67.55 19.73 66.9C20.59 66.25 21.21 65.33 21.83 64.43C26.27 57.99 31.66 52.21 37.76 47.3C38.8 46.46 42.14 42.78 38.7 42.94C36.7 43.04 33.67 46.78 32.19 48.05C27.57 51.99 22.94 55.92 18.32 59.85Z" fill="#FFFFFF" fill-opacity="1.000000" fill-rule="nonzero"/>
	</g>
	<g opacity="0.340000">
		<path id="Vector" d="M41.25 40.3C41.13 40.51 41 40.74 41.02 40.98C41.05 41.45 41.6 41.74 42.06 41.72C43 41.69 43.71 40.91 44.32 40.18C45.12 39.22 49.58 34.9 45.97 35.39C43.83 35.67 42.2 38.64 41.25 40.3Z" fill="#FFFFFF" fill-opacity="1.000000" fill-rule="nonzero"/>
	</g>
	<path id="Vector" d="M66.55 30.78C67.13 28.32 66.24 25.56 64.31 23.9C62.39 22.25 59.53 21.77 57.18 22.7C58.33 21.02 59.86 19.61 61.61 18.59C62.55 18.04 63.64 17.59 64.72 17.76C64.66 17.32 64.58 16.9 64.52 16.46C60.45 16.52 56.56 19.27 55.15 23.08C55.33 21.21 54.25 19.34 52.7 18.28C51.15 17.2 49.19 16.83 47.31 16.92C46.96 16.93 46.58 16.96 46.3 17.18C45.76 17.59 45.82 18.4 45.94 19.07C47.77 18.11 50.16 18.3 51.82 19.54C53.49 20.78 54.35 23.01 53.96 25.04L54.62 26.36C55.65 24.66 57.79 23.8 59.75 24.06C61.72 24.32 63.47 25.62 64.51 27.3C64.86 27.87 65.15 28.5 65.15 29.16C65.16 29.82 64.82 30.52 64.22 30.8C65.02 30.9 65.79 30.9 66.55 30.78Z" fill="#46A5AA" fill-opacity="1.000000" fill-rule="nonzero"/>
</svg>
