<svg width="68.050293" height="59.115234" viewBox="0 0 68.0503 59.1152" fill="none" xmlns="http://www.w3.org/2000/svg" xmlns:xlink="http://www.w3.org/1999/xlink">
	<desc>
			Created with Pixso.
	</desc>
	<defs/>
	<path id="Vector" d="M60.56 42.29C57.94 51.58 43.34 55.59 27.95 51.26C12.5 46.82 2.14 35.78 4.73 26.56C4.88 26.04 5.1 25.55 5.3 25.12C8.95 16.91 22.81 13.57 37.4 17.68C52 21.79 62.08 31.88 60.88 40.86C60.78 41.23 60.71 41.77 60.56 42.29Z" fill="#F281A3" fill-opacity="1.000000" fill-rule="nonzero"/>
	<path id="Vector" d="M60.83 40.77C59.81 42.71 57.73 43.96 55.72 45.78C53.71 47.6 51.24 48.82 48.32 48C46.86 47.59 45.09 47.72 43.58 48.33C41.17 49.33 38.35 49.01 36.08 47.82C34.09 46.78 31.64 46.25 29.24 46.37C25.36 46.47 22.4 45.23 19.86 42.77C17.58 40.53 14.96 38.92 12.39 37.96C8.61 36.57 6.88 34.33 6.29 30.82C5.96 28.66 5.11 26.9 5.22 25.1C8.88 16.89 22.74 13.55 37.33 17.66C51.95 21.7 62.02 31.79 60.83 40.77Z" fill="#EE5D7C" fill-opacity="1.000000" fill-rule="nonzero"/>
	<path id="Vector" d="M61.89 37.56C61.16 40.15 58.75 41.46 56.41 43.59C54.4 45.41 51.93 46.63 49.02 45.8C47.56 45.39 45.78 45.53 44.27 46.14C41.79 47.11 39.04 46.82 36.78 45.62C34.79 44.58 32.34 44.05 29.94 44.17C26.05 44.27 23.09 43.04 20.56 40.57C18.27 38.34 15.66 36.72 13.07 35.84C9.21 34.43 7.5 32.12 6.91 28.61C6.52 26.11 5.46 23.98 6.06 21.84C8.31 13.87 22.6 10.96 38 15.3C53.39 19.64 64.14 29.59 61.89 37.56Z" fill="#AAD7D4" fill-opacity="1.000000" fill-rule="nonzero"/>
	<path id="Vector" d="M63.31 32.55C60.69 41.84 46.11 45.78 30.71 41.44C15.24 37.08 4.88 26.04 7.48 16.82C7.73 15.93 8.12 15.09 8.59 14.27C12.97 6.82 26.23 3.94 40.1 7.85C53.96 11.75 63.84 21.15 63.69 29.79C63.68 30.66 63.58 31.59 63.31 32.55Z" fill="#EE5D7C" fill-opacity="1.000000" fill-rule="nonzero"/>
	<path id="Vector" d="M63.69 29.79C59.33 37.16 46.07 40.04 32.13 36.11C18.19 32.18 8.46 22.83 8.59 14.27C12.97 6.82 26.23 3.94 40.1 7.85C53.96 11.75 63.84 21.15 63.69 29.79Z" fill="#F281A3" fill-opacity="1.000000" fill-rule="nonzero"/>
	<path id="Vector" d="M40.62 13.81C40.79 17.12 34.84 20.07 27.41 20.44C19.98 20.82 13.78 18.51 13.58 15.27C13.42 11.96 19.36 9.02 26.8 8.64C34.25 8.19 40.43 10.57 40.62 13.81Z" fill="#F2AEBD" fill-opacity="1.000000" fill-rule="nonzero"/>
	<path id="Vector" d="M45.9 23.58C45.61 23.5 45.47 24.02 45.76 24.1C46.14 24.13 46.27 23.68 45.9 23.58Z" fill="#EE3686" fill-opacity="1.000000" fill-rule="nonzero"/>
	<path id="Vector" d="M50.55 20.51C49.6 20.24 49.18 21.72 50.13 21.99C51.08 22.25 51.5 20.78 50.55 20.51Z" fill="#EE3686" fill-opacity="1.000000" fill-rule="nonzero"/>
	<path id="Vector" d="M37.04 25.39C36.1 25.12 35.68 26.6 36.63 26.86C37.63 27.22 38.07 25.67 37.04 25.39Z" fill="#EE3686" fill-opacity="1.000000" fill-rule="nonzero"/>
	<path id="Vector" d="M24.11 24.05L24.04 24.03C23.74 23.95 23.6 24.47 23.89 24.55L23.96 24.57C24.26 24.65 24.4 24.13 24.11 24.05Z" fill="#EE3686" fill-opacity="1.000000" fill-rule="nonzero"/>
	<path id="Vector" d="M36.93 20.5C36.7 20.19 36.23 20.46 36.38 20.74C36.51 20.86 36.56 20.95 36.78 21.01C37.15 21.11 37.29 20.6 36.93 20.5Z" fill="#EE3686" fill-opacity="1.000000" fill-rule="nonzero"/>
	<path id="Vector" d="M43.31 11.54C43.02 11.46 42.87 11.98 43.16 12.06C43.45 12.14 43.6 11.62 43.31 11.54Z" fill="#EE3686" fill-opacity="1.000000" fill-rule="nonzero"/>
	<path id="Vector" d="M27.31 27.5L27.09 27.44C26.14 27.17 25.71 28.72 26.66 28.99L26.87 29.05C27.92 29.27 28.33 27.79 27.31 27.5Z" fill="#EE3686" fill-opacity="1.000000" fill-rule="nonzero"/>
	<path id="Vector" d="M13.14 15.47C12.83 15.14 12.35 15.17 12.03 15.47C11.84 15.58 11.71 15.78 11.65 16C11.52 16.44 11.8 16.84 12.17 16.95C12.53 17.05 12.91 16.84 13.09 16.49C13.46 16.27 13.39 15.7 13.14 15.47Z" fill="#EE3686" fill-opacity="1.000000" fill-rule="nonzero"/>
	<path id="Vector" d="M44.47 33.13C43.52 32.87 43.11 34.34 44.06 34.61C45.08 34.9 45.49 33.42 44.47 33.13Z" fill="#EE3686" fill-opacity="1.000000" fill-rule="nonzero"/>
</svg>
