<svg width="12.235352" height="16.000000" viewBox="0 0 12.2354 16" fill="none" xmlns="http://www.w3.org/2000/svg" xmlns:xlink="http://www.w3.org/1999/xlink">
	<desc>
			Created with Pixso.
	</desc>
	<defs/>
	<path id="Vector" d="M6.11 8.47C8.45 8.47 10.35 6.57 10.35 4.23C10.35 1.89 8.45 0 6.11 0C3.78 0 1.88 1.89 1.88 4.23C1.88 6.57 3.78 8.47 6.11 8.47ZM6.11 2.11C7.28 2.11 8.23 3.06 8.23 4.23C8.23 5.4 7.28 6.35 6.11 6.35C4.94 6.35 4 5.4 4 4.23C4 3.06 4.94 2.11 6.11 2.11Z" fill="#000000" fill-opacity="1.000000" fill-rule="nonzero"/>
	<path id="Vector" d="M11.91 7.82C11.48 7.43 10.79 7.43 10.37 7.82C8.02 9.98 4.21 9.98 1.86 7.82C1.43 7.43 0.74 7.43 0.32 7.82C-0.11 8.21 -0.11 8.85 0.32 9.25C1.68 10.5 3.4 11.21 5.18 11.4L2.06 14.27C1.63 14.67 1.63 15.31 2.06 15.7C2.49 16.09 3.18 16.09 3.61 15.7L6.11 13.39L8.62 15.7C8.83 15.9 9.11 16 9.39 16C9.67 16 9.95 15.9 10.16 15.7C10.59 15.31 10.59 14.67 10.16 14.27L7.05 11.4C8.83 11.21 10.55 10.5 11.91 9.25C12.34 8.85 12.34 8.21 11.91 7.82Z" fill="#000000" fill-opacity="1.000000" fill-rule="nonzero"/>
</svg>
