<svg width="46.000000" height="46.000000" viewBox="0 0 46 46" fill="none" xmlns="http://www.w3.org/2000/svg" xmlns:xlink="http://www.w3.org/1999/xlink">
	<desc>
			Created with Pixso.
	</desc>
	<defs/>
	<rect id="Rectangle 401" width="46.000000" height="46.000000" fill="#C4C4C4" fill-opacity="0"/>
	<path id="Vector" d="M19.25 8C20.92 8 22.39 8.94 23.14 10.32C23.89 9.33 25.07 8.68 26.4 8.68C28.66 8.68 30.5 10.52 30.5 12.77C30.5 13.81 30.09 14.77 29.44 15.5L37.31 15.5C37.49 15.5 37.67 15.57 37.79 15.69C37.92 15.82 38 16 38 16.18L38 22.31C38 22.49 37.92 22.67 37.79 22.8C37.67 22.92 37.49 23 37.31 23L35.61 23L35.61 37.31C35.61 37.49 35.54 37.67 35.41 37.8C35.28 37.92 35.11 38 34.93 38L11.06 38C10.88 38 10.71 37.92 10.58 37.8C10.45 37.67 10.38 37.49 10.38 37.31L10.38 23L8.68 23C8.5 23 8.32 22.92 8.2 22.8C8.07 22.67 8 22.49 8 22.31L8 16.18C8 16 8.07 15.82 8.2 15.69C8.32 15.57 8.5 15.5 8.68 15.5L16.05 15.5C15.28 14.7 14.81 13.61 14.81 12.43C14.81 9.99 16.81 8 19.25 8ZM19.25 9.36C17.54 9.36 16.18 10.72 16.18 12.43C16.18 14.13 17.54 15.5 19.25 15.5L22.31 15.5L22.31 12.77L22.31 12.43C22.31 10.72 20.95 9.36 19.25 9.36ZM26.4 10.04C24.89 10.04 23.68 11.25 23.68 12.77L23.68 15.5L26.4 15.5C27.92 15.5 29.13 14.28 29.13 12.77C29.13 11.25 27.92 10.04 26.4 10.04ZM36.63 16.86L29.47 16.86L29.47 21.63L34.93 21.63L36.63 21.63L36.63 16.86ZM28.11 16.86L17.88 16.86L17.88 21.63L28.11 21.63L28.11 16.86ZM16.52 16.86L9.36 16.86L9.36 21.63L11.06 21.63L16.52 21.63L16.52 16.86ZM34.25 23L26.4 23L26.4 36.63L34.25 36.63L34.25 23ZM25.04 23L20.95 23L20.95 36.63L25.04 36.63L25.04 23ZM19.59 23L11.75 23L11.75 36.63L19.59 36.63L19.59 23Z" fill="#E7426A" fill-opacity="1.000000" fill-rule="nonzero"/>
</svg>
