<svg width="46.000000" height="46.000000" viewBox="0 0 46 46" fill="none" xmlns="http://www.w3.org/2000/svg" xmlns:xlink="http://www.w3.org/1999/xlink">
	<desc>
			Created with Pixso.
	</desc>
	<defs/>
	<rect id="Rectangle 399" width="46.000000" height="46.000000" fill="#C4C4C4" fill-opacity="0"/>
	<path id="Vector" d="M42.86 23.26L37.53 16.93C37.4 16.79 37.2 16.66 37 16.66L29.66 16.66L29.66 27.33L3 27.33L3 32C3 32.39 3.26 32.66 3.66 32.66L7.53 32.66C7.46 32.86 7.46 33.13 7.46 33.33C7.46 35.19 8.93 36.66 10.79 36.66C12.66 36.66 14.13 35.19 14.13 33.33C14.13 33.13 14.13 32.86 14.06 32.66L32.4 32.66C32.33 32.86 32.33 33.13 32.33 33.33C32.33 35.19 33.79 36.66 35.66 36.66C37.53 36.66 39 35.19 39 33.33C39 33.13 39 32.86 38.93 32.66L42.33 32.66C42.73 32.66 43 32.39 43 32L43 23.73L43 23.66C43 23.53 42.93 23.39 42.86 23.26ZM40.93 23L36.33 23L36.33 20.66L38.93 20.66L40.93 23ZM10.79 35.33C9.66 35.33 8.79 34.46 8.79 33.33C8.79 33 8.86 32.66 9.06 32.33C9.4 31.73 10.06 31.33 10.79 31.33C11 31.33 11.13 31.33 11.33 31.39C11.66 31.46 12 31.66 12.2 31.93C12.33 32.06 12.4 32.19 12.53 32.33C12.73 32.66 12.79 33 12.79 33.33C12.79 34.46 11.86 35.33 10.79 35.33ZM35.66 35.33C34.53 35.33 33.66 34.46 33.66 33.33C33.66 33 33.73 32.66 33.93 32.33C34.26 31.73 34.93 31.33 35.66 31.33C35.86 31.33 36 31.33 36.2 31.39C36.53 31.46 36.86 31.66 37.06 31.93C37.2 32.06 37.26 32.19 37.4 32.33C37.59 32.66 37.66 33 37.66 33.33C37.66 34.46 36.79 35.33 35.66 35.33ZM41.66 31.33L38.33 31.33C38.33 31.26 38.26 31.26 38.26 31.19C38.2 31.13 38.13 31.06 38.06 31C38 30.93 38 30.93 37.93 30.86C37.86 30.79 37.79 30.73 37.73 30.73C37.66 30.66 37.66 30.66 37.59 30.66C37.53 30.59 37.46 30.59 37.4 30.53C37.33 30.53 37.33 30.46 37.26 30.46C37.2 30.39 37.13 30.39 37.06 30.33C37 30.33 36.93 30.26 36.93 30.26C36.86 30.26 36.79 30.19 36.66 30.19C36.59 30.19 36.53 30.19 36.53 30.13C36.46 30.13 36.33 30.06 36.26 30.06C36.2 30.06 36.2 30.06 36.13 30.06C36 30.06 35.86 30.06 35.73 30.06C35.59 30.06 35.46 30.06 35.33 30.06C35.26 30.06 35.26 30.06 35.2 30.06C35.13 30.06 35 30.06 34.93 30.13C34.86 30.13 34.79 30.13 34.79 30.19C34.73 30.19 34.66 30.26 34.53 30.26C34.46 30.26 34.4 30.33 34.4 30.33C34.33 30.39 34.26 30.39 34.2 30.46C34.13 30.46 34.13 30.53 34.06 30.53C34 30.59 33.93 30.59 33.86 30.66C33.79 30.66 33.79 30.73 33.73 30.73C33.66 30.79 33.59 30.86 33.53 30.86C33.46 30.93 33.46 30.93 33.4 31C33.33 31.06 33.26 31.13 33.2 31.19C33.2 31.26 33.13 31.26 33.13 31.33L13.46 31.33C13.46 31.26 13.4 31.26 13.4 31.19C13.33 31.13 13.26 31.06 13.2 31C13.13 30.93 13.13 30.93 13.06 30.86C13 30.79 12.93 30.73 12.86 30.73C12.79 30.66 12.79 30.66 12.73 30.66C12.66 30.59 12.59 30.59 12.53 30.53C12.46 30.53 12.46 30.46 12.4 30.46C12.33 30.39 12.26 30.39 12.2 30.33C12.13 30.33 12.06 30.26 12.06 30.26C12 30.26 11.93 30.19 11.79 30.19C11.73 30.19 11.66 30.19 11.66 30.13C11.59 30.13 11.46 30.06 11.4 30.06C11.33 30.06 11.33 30.06 11.26 30.06C11.13 30.06 11 30.06 10.86 30.06C10.73 30.06 10.59 30.06 10.46 30.06C10.4 30.06 10.4 30.06 10.33 30.06C10.26 30.06 10.13 30.06 10.06 30.13C10 30.13 9.93 30.13 9.93 30.19C9.86 30.19 9.79 30.26 9.73 30.26C9.66 30.26 9.59 30.33 9.53 30.33C9.46 30.33 9.4 30.39 9.33 30.39C9.26 30.39 9.2 30.46 9.13 30.46C9.06 30.53 9 30.53 8.93 30.59C8.86 30.66 8.79 30.66 8.79 30.73C8.73 30.79 8.73 30.79 8.66 30.86C8.59 30.93 8.53 30.93 8.53 31C8.33 31.06 8.33 31.13 8.26 31.19C8.2 31.26 8.2 31.33 8.13 31.33L4.33 31.33L4.33 28.66L30.33 28.66C30.73 28.66 31 28.39 31 28L31 18L36.66 18L37.79 19.33L35.66 19.33C35.26 19.33 35 19.59 35 20L35 23.66C35 24.06 35.26 24.33 35.66 24.33L41.66 24.33L41.66 31.33Z" fill="#E7426A" fill-opacity="1.000000" fill-rule="nonzero"/>
	<path id="Vector" d="M25.79 14.39C25.2 11.26 22.46 9 19.2 9L14 9C10.79 9 8.06 11.26 7.4 14.39C6.59 14.66 6 15.39 6 16.26C6 16.79 6.2 17.26 6.53 17.6C6.2 17.93 6 18.39 6 18.93C6 19.79 6.59 20.6 7.4 20.79C8 23.93 10.73 26.2 14 26.2L19.2 26.2C22.4 26.2 25.13 23.93 25.79 20.79C26.59 20.53 27.2 19.79 27.2 18.93C27.2 18.39 27 17.93 26.66 17.6C27 17.26 27.2 16.79 27.2 16.26C27.26 15.39 26.66 14.66 25.79 14.39ZM14 10.33L19.2 10.33C21.66 10.33 23.73 12 24.4 14.33L24.13 14.33L24 14.2C23.73 13.79 23.26 13.66 22.79 13.66L22.4 13.66C21.93 13.66 21.46 13.86 21.13 14.2C21.06 14.26 20.93 14.33 20.79 14.33L20.4 14.33C20.26 14.33 20.13 14.26 20.06 14.2C19.73 13.79 19.26 13.66 18.79 13.66L18.4 13.66C17.93 13.66 17.46 13.86 17.13 14.2C17.06 14.26 16.93 14.33 16.79 14.33L16.4 14.33C16.26 14.33 16.13 14.26 16.06 14.2C15.79 13.79 15.33 13.66 14.86 13.66L14.46 13.66C14 13.66 13.53 13.86 13.2 14.2C13.13 14.26 13 14.33 12.86 14.33L12.46 14.33C12.33 14.33 12.2 14.26 12.13 14.2C11.79 13.79 11.33 13.66 10.86 13.66L10.46 13.66C10 13.66 9.53 13.86 9.2 14.2L9.06 14.26L8.86 14.26C9.46 12 11.59 10.33 14 10.33ZM8 15.6L9.59 15.6L10.13 15.06C10.26 15 10.33 14.93 10.46 14.93L10.86 14.93C11 14.93 11.13 15 11.2 15.06C11.53 15.39 12 15.6 12.46 15.6L12.86 15.6C13.33 15.6 13.79 15.39 14.13 15.06C14.2 15 14.33 14.93 14.46 14.93L14.86 14.93C15 14.93 15.13 15 15.2 15.06C15.53 15.39 16 15.6 16.46 15.6L16.86 15.6C17.33 15.6 17.79 15.39 18.13 15.06C18.2 15 18.33 14.93 18.4 14.93L18.79 14.93C18.93 14.93 19.06 15 19.13 15.06C19.46 15.39 19.93 15.6 20.4 15.6L20.79 15.6C21.26 15.6 21.73 15.39 22.06 15.06C22.13 15 22.26 14.93 22.4 14.93L22.79 14.93C22.93 14.93 23.06 15 23.13 15.06L23.66 15.6L25.26 15.6C25.59 15.6 25.93 15.86 25.93 16.26C25.93 16.66 25.66 16.93 25.26 16.93L8 16.93C7.66 16.93 7.33 16.66 7.33 16.26C7.33 15.86 7.66 15.6 8 15.6ZM19.26 24.86L14.06 24.86C11.59 24.86 9.53 23.2 8.86 20.86L24.46 20.86C23.79 23.26 21.73 24.86 19.26 24.86ZM25.26 19.6L8 19.6C7.66 19.6 7.33 19.33 7.33 18.93C7.33 18.53 7.59 18.26 8 18.26L25.2 18.26C25.53 18.26 25.86 18.53 25.86 18.93C25.86 19.33 25.59 19.6 25.26 19.6Z" fill="#E7426A" fill-opacity="1.000000" fill-rule="nonzero"/>
</svg>
