<svg width="24.000000" height="24.000000" viewBox="0 0 24 24" fill="none" xmlns="http://www.w3.org/2000/svg" xmlns:xlink="http://www.w3.org/1999/xlink">
	<desc>
			Created with Pixso.
	</desc>
	<defs/>
	<circle id="Ellipse 15" cx="12.000000" cy="12.000000" r="12.000000" fill="#E7426A" fill-opacity="1.000000"/>
	<path id="%" d="M10.61 11.14Q10.89 10.98 11.11 10.75Q11.38 10.47 11.55 10.15Q11.8 9.63 11.8 9Q11.8 8.32 11.53 7.79Q11.37 7.48 11.11 7.23C10.66 6.75 10.08 6.51 9.37 6.51Q8.75 6.51 8.25 6.76Q7.92 6.94 7.65 7.23Q7.42 7.47 7.26 7.75Q6.97 8.3 6.97 9Q6.97 9.68 7.26 10.22Q7.41 10.51 7.63 10.75Q7.86 10.98 8.14 11.14Q8.67 11.44 9.37 11.44Q10.08 11.44 10.61 11.14ZM8.43 16.66L9.24 16.66L15.64 6.66L14.82 6.66L8.43 16.66ZM8.72 10.54Q8.48 10.43 8.29 10.21Q8.17 10.07 8.09 9.91Q7.87 9.51 7.87 9Q7.87 8.39 8.15 7.95Q8.22 7.86 8.29 7.77C8.57 7.44 8.93 7.27 9.37 7.27C9.82 7.27 10.19 7.44 10.47 7.77Q10.57 7.87 10.64 8Q10.9 8.42 10.9 9Q10.9 9.48 10.71 9.86Q10.61 10.05 10.47 10.21C10.18 10.53 9.81 10.69 9.37 10.69Q9.01 10.69 8.72 10.54ZM15.83 16.54Q16.11 16.38 16.33 16.15C16.78 15.68 17.01 15.1 17.01 14.4Q17.01 13.7 16.72 13.15Q16.57 12.87 16.33 12.63Q16.08 12.35 15.76 12.18Q15.25 11.91 14.59 11.91Q13.97 11.91 13.47 12.16Q13.14 12.34 12.87 12.63Q12.64 12.87 12.48 13.15Q12.19 13.7 12.19 14.4C12.19 15.1 12.41 15.68 12.85 16.15Q13.08 16.38 13.36 16.54Q13.89 16.84 14.59 16.84Q15.3 16.84 15.83 16.54ZM14.59 16.09C14.15 16.09 13.79 15.93 13.5 15.61C13.22 15.28 13.08 14.88 13.08 14.4C13.08 13.9 13.22 13.49 13.5 13.17C13.78 12.84 14.14 12.67 14.59 12.67Q14.97 12.67 15.27 12.82Q15.5 12.94 15.69 13.17C15.98 13.49 16.12 13.9 16.12 14.4Q16.12 14.88 15.93 15.27Q15.83 15.45 15.69 15.61C15.4 15.93 15.03 16.09 14.59 16.09Z" fill="#FFFFFF" fill-opacity="1.000000" fill-rule="evenodd"/>
</svg>
