<svg width="16.843750" height="9.608887" viewBox="0 0 16.8438 9.60889" fill="none" xmlns="http://www.w3.org/2000/svg" xmlns:xlink="http://www.w3.org/1999/xlink">
	<desc>
			Created with Pixso.
	</desc>
	<defs/>
	<path d="M8.24 9.56L9.24 9.56C9.24 9.56 9.55 9.53 9.7 9.36C9.85 9.21 9.84 8.92 9.84 8.92C9.84 8.92 9.82 7.57 10.45 7.37C11.07 7.17 11.86 8.68 12.7 9.25C13.34 9.69 13.82 9.6 13.82 9.6L16.07 9.56C16.07 9.56 17.25 9.49 16.69 8.57C16.64 8.49 16.36 7.88 15.02 6.63C13.61 5.32 13.79 5.53 15.49 3.27C16.53 1.89 16.94 1.05 16.81 0.69C16.69 0.34 15.93 0.43 15.93 0.43L13.4 0.45C13.4 0.45 13.21 0.43 13.07 0.51C12.93 0.59 12.85 0.78 12.85 0.78C12.85 0.78 12.44 1.85 11.91 2.75C10.78 4.67 10.33 4.77 10.15 4.65C9.72 4.37 9.83 3.54 9.83 2.94C9.83 1.09 10.11 0.31 9.28 0.11C9 0.05 8.8 0 8.09 0C7.19 -0.01 6.43 0 5.99 0.21C5.7 0.35 5.48 0.67 5.62 0.69C5.79 0.71 6.16 0.79 6.37 1.06C6.63 1.41 6.62 2.21 6.62 2.21C6.62 2.21 6.77 4.39 6.27 4.66C5.93 4.85 5.46 4.47 4.45 2.73C3.94 1.84 3.55 0.86 3.55 0.86C3.55 0.86 3.47 0.68 3.34 0.58C3.18 0.46 2.95 0.42 2.95 0.42L0.54 0.44C0.54 0.44 0.18 0.45 0.05 0.6C-0.07 0.74 0.04 1.03 0.04 1.03C0.04 1.03 1.92 5.44 4.06 7.66C6.01 9.7 8.24 9.56 8.24 9.56Z" fill="#000000" fill-opacity="1.000000" fill-rule="evenodd"/>
</svg>
